<svg width="120" height="120" viewBox="0 0 120 120" fill="none" xmlns="http://www.w3.org/2000/svg">
<g clip-path="url(#clip0)">
<path d="M69.3749 65.9475C68.0811 65.9475 67.0311 66.9975 67.0311 68.2913C67.0311 69.585 68.0811 70.635 69.3749 70.635C70.6686 70.635 71.7186 69.585 71.7186 68.2913C71.7186 66.9975 70.6686 65.9475 69.3749 65.9475Z" fill="#19A250"/>
<path d="M90.2861 78.5668C88.0891 76.3709 82.761 70.4276 78.5577 60.7891C75.4321 53.2896 68.1639 48.4448 60.0355 48.4448C51.9088 48.4448 44.6417 53.2903 41.5154 60.7915C36.2419 72.8867 29.0377 79.2875 28.9686 79.3479C28.9601 79.3552 28.9519 79.3627 28.9437 79.37C24.6945 83.1746 22.2574 88.6248 22.2574 94.3229C22.2574 101.289 25.5746 107.347 31.3289 111.185C36.6905 114.762 43.3358 115.835 49.5596 114.128C52.6787 113.274 56.2888 112.822 60.0003 112.822C63.7745 112.822 67.438 113.289 70.5948 114.172C76.6358 115.863 83.2665 114.936 88.7404 111.319C94.5609 107.473 97.9354 101.358 97.9354 94.3229C97.9354 88.1356 95.1496 82.4016 90.2861 78.5668ZM86.1557 107.408C81.9315 110.199 76.7202 111.019 71.8576 109.658C68.2949 108.661 64.1947 108.134 59.9996 108.134C55.8756 108.134 51.837 108.644 48.3198 109.607C43.4058 110.955 38.161 110.109 33.9296 107.286C29.5116 104.338 26.9443 99.7309 26.9443 94.3227C26.9443 89.96 28.8089 85.7865 32.0604 82.8704C32.5606 82.4318 40.1665 75.6223 45.8197 62.6461C45.8248 62.6339 45.8302 62.6217 45.8351 62.6095C48.2277 56.8523 53.8011 53.1323 60.0345 53.1323C66.2703 53.1321 71.845 56.8514 74.2368 62.6072C74.2417 62.6194 74.2471 62.6316 74.2522 62.6438C78.8427 73.1789 84.7532 79.6829 87.081 81.9905C87.148 82.0566 87.2188 82.119 87.2929 82.1766C91.0771 85.1169 93.2472 89.544 93.2472 94.3227C93.2477 99.7759 90.6386 104.446 86.1557 107.408Z" fill="black"/>
<path d="M75.7595 75.2778C75.0531 74.1933 73.6014 73.8861 72.5164 74.5927C71.4315 75.2996 71.125 76.7515 71.8314 77.836C75.3979 83.3117 78.7794 86.9586 80.4782 88.6452C81.3965 89.5569 82.8805 89.552 83.7929 88.6332C84.7049 87.7147 84.6995 86.2306 83.781 85.3184C82.2144 83.7631 79.0893 80.3907 75.7595 75.2778Z" fill="#19A250"/>
<path d="M52.404 37.0183C54.6561 33.0819 55.595 27.8537 54.98 22.6757C53.7903 12.5945 46.8376 4.14923 39.0697 5.08205C35.562 5.49713 32.4434 7.79963 30.2869 11.5653C28.0362 15.4986 27.0973 20.7268 27.7109 25.9086C29.6541 42.3724 44.9806 49.9856 52.404 37.0183ZM34.3552 13.8939C35.6382 11.6525 37.6395 9.70346 40.2193 9.70346C44.832 9.70346 49.46 15.8954 50.3253 23.2267C50.8245 27.4297 50.0994 31.608 48.3359 34.69C42.9343 44.1269 33.6422 36.1708 32.3658 25.3583C31.8678 21.152 32.5932 16.9733 34.3552 13.8939Z" fill="black"/>
<path d="M29.9536 62.2266C30.6321 58.0493 29.8076 53.4295 27.6321 49.218C25.4557 45.0056 22.1646 41.6594 18.3647 39.7957C14.3289 37.8161 10.196 37.7139 6.72721 39.5076C3.25845 41.2999 0.951731 44.7295 0.231261 49.1655C-0.447256 53.343 0.377277 57.9626 2.55275 62.1745C4.7294 66.3858 8.0205 69.7313 11.8204 71.595C15.5915 73.4447 19.7695 73.7904 23.4572 71.8852C26.9264 70.0929 29.2336 66.6626 29.9536 62.2266ZM21.3058 67.7206C19.1894 68.8146 16.5541 68.6958 13.8848 67.3866C10.9809 65.9623 8.43557 63.3467 6.71737 60.0225C5.0001 56.6979 4.33963 53.1094 4.85807 49.9169C5.33455 46.983 6.76284 44.7656 8.87948 43.672C8.87972 43.6718 8.87995 43.6718 8.88019 43.6715C11.2207 42.4615 13.9314 42.8421 16.3005 44.0041C19.2042 45.4284 21.7495 48.0443 23.4677 51.3696C25.185 54.6942 25.8455 58.2832 25.327 61.4754C24.8508 64.4093 23.4225 66.627 21.3058 67.7206Z" fill="black"/>
<path d="M77.5777 43.6146C84.6828 43.6146 91.1686 35.8573 92.3431 25.9537C93.5912 15.4035 88.2755 5.06079 79.8321 5.06079C72.7259 5.06079 66.2407 12.8184 65.0691 22.7217C63.8196 33.2911 69.151 43.6146 77.5777 43.6146ZM69.7242 23.2722C70.5919 15.9414 75.2208 9.74807 79.8326 9.74807C80.0496 9.74807 80.2367 9.75861 80.4043 9.78041C82.9034 10.0581 84.8379 12.2423 85.9775 14.4724C87.5276 17.5054 88.1511 21.4893 87.6884 25.4022C86.7877 32.9969 81.7538 39.5109 77.0063 38.8948C76.9976 38.8938 76.9889 38.8927 76.9803 38.8915C74.8491 38.6407 72.8276 36.9321 71.4345 34.204C69.8848 31.1707 69.2616 27.1863 69.7242 23.2722Z" fill="black"/>
<path d="M119.769 49.1749C118.287 40.0469 110.035 35.6833 101.635 39.805C93.7771 43.66 88.6424 53.5905 90.0465 62.2362C91.5463 71.4722 99.88 75.6762 108.18 71.6046C116.04 67.7489 121.173 57.8196 119.769 49.1749ZM106.115 67.3959C103.446 68.7049 100.811 68.8233 98.6943 67.7299V67.7302C96.5776 66.6363 95.1493 64.4182 94.6731 61.4848C93.6015 54.8857 97.682 46.9659 103.7 44.013C109.215 41.3076 114.156 43.8548 115.142 49.9261C116.212 56.513 112.144 64.4391 106.115 67.3959Z" fill="black"/>
</g>
<defs>
<clipPath id="clip0">
<rect width="120" height="120" fill="white"/>
</clipPath>
</defs>
</svg>
