<svg width="120" height="120" viewBox="0 0 120 120" fill="none" xmlns="http://www.w3.org/2000/svg">
<path d="M83.681 73.5443C107.555 56.4093 105.777 20.3897 80.5389 5.5673C80.462 5.51328 80.3787 5.46568 80.2908 5.42448C65.2982 -3.23824 46.0757 -1.4905 32.8281 10.4205C32.1057 11.0696 32.0462 12.1811 32.6953 12.9025C33.3444 13.6249 34.4559 13.6834 35.1782 13.0343C43.8126 5.27158 55.5835 2.00956 66.9241 4.1638C66.7621 6.07908 65.4282 8.15275 63.9706 9.53886C61.1078 12.2616 49.2526 9.91239 44.9469 19.3268C44.3454 20.6396 43.5159 22.9715 42.7707 24.1397C42.3926 22.8213 42.084 20.7504 40.4224 19.3451C39.4254 18.5019 38.3588 18.1292 37.2519 18.2364C35.2615 18.4314 33.8809 20.1608 33.0551 21.1935C31.311 23.378 32.0874 25.339 32.6532 26.7718C33.1778 28.0966 33.6301 29.2401 32.7878 31.1453C31.9803 32.9736 33.6575 34.9695 34.2087 35.625C36.4682 38.313 42.1381 42.7698 45.5933 41.9137C54.0262 39.8172 56.4139 53.5611 62.0279 54.993C66.232 56.065 70.2759 58.4967 69.7659 60.7113C68.1949 67.5302 61.7249 66.8637 57.6682 68.6618C55.4343 69.6524 51.3885 72.464 48.6731 75.9036C46.5289 75.2197 44.469 74.3509 42.5125 73.309C42.778 72.6901 43.0701 72.0428 43.3932 71.3626C46.3312 65.1956 46.1371 61.9848 39.1873 56.2481C35.8566 53.4988 37.0065 49.7809 38.5583 47.1469C39.5471 45.4687 39.0582 43.2907 37.4451 42.1893C34.9384 40.4745 27.5977 36.08 24.1727 31.0226C25.4343 26.2774 27.5775 21.9104 30.5585 18.0267C31.1499 17.2558 31.0043 16.1526 30.2344 15.5612C29.4635 14.9698 28.3603 15.1153 27.7698 15.8853C17.9471 28.6834 16.1755 47.091 25.5789 62.1231C37.9697 81.9305 64.2874 87.1206 83.2837 73.8244C83.4641 73.732 83.5721 73.6459 83.681 73.5443ZM83.1711 69.5224C82.8708 66.8078 85.3308 62.7356 87.551 59.0616C90.4614 54.2459 93.2098 49.6975 91.0245 46.4465C88.9526 43.3658 85.8948 44.609 82.316 41.6556C80.2185 39.9243 78.2666 37.7325 79.4156 31.7367C79.7406 30.0375 81.3748 27.9217 84.0161 25.7794C85.7373 24.3832 86.3809 22.023 85.6165 19.9072C85.3116 19.0631 85.2988 18.5174 85.3812 18.3059C86.6428 15.0677 81.2997 13.3246 80.8365 9.89225C101.558 23.9474 102.573 54.0152 83.1711 69.5224ZM23.2635 35.5261C27.2717 39.9627 32.775 43.2541 35.462 45.0924C35.5545 45.1547 35.5829 45.271 35.5298 45.3625C32.4005 50.6753 32.9178 55.632 36.9498 58.9599C43.6194 64.465 42.0364 65.6488 39.4684 71.4935C28.0463 63.912 21.2302 50.0839 23.2635 35.5261ZM52.4561 76.8979C54.6368 74.5688 57.4576 72.6013 59.0936 71.8762C62.4435 70.3921 71.1008 70.5826 73.1927 61.4996C74.2886 56.7435 68.812 53.0932 62.8976 51.5854C59.6741 50.7632 55.7327 35.7742 44.7473 38.5006C44.5258 38.5528 43.439 38.4228 41.4047 37.1576C38.5693 35.3933 36.5094 33.1219 36.134 32.2604C37.3828 29.1705 36.5085 26.9577 35.9235 25.4782C35.386 24.1186 35.3751 23.9236 35.8026 23.388C36.1194 22.9916 37.0825 21.7859 37.5943 21.7355C37.7124 21.7218 37.9211 21.8335 38.1519 22.0294C39.602 23.2562 38.8623 27.4447 42.0639 28.0536C45.488 28.7036 46.8503 23.6188 48.1439 20.7889C51.6476 13.1286 62.1341 16.138 66.394 12.0859C68.6069 9.98106 70.004 7.4249 70.3629 4.98594C72.8412 5.70463 75.2124 6.66685 77.45 7.8552C76.3751 12.9748 80.8163 15.9146 81.9736 17.4298C81.6916 18.4698 81.8042 19.703 82.3096 21.1011C82.5659 21.8115 82.3618 22.5943 81.8015 23.0484C79.4778 24.9325 76.5793 27.8549 75.9622 31.0748C74.5203 38.6041 77.2339 42.019 80.0775 44.3673C86.6876 49.823 92.3474 44.3261 84.5416 57.2424C81.6138 62.0874 78.3444 67.5 80.1114 71.7224C72.1912 76.8384 62.3465 78.956 52.4561 76.8979Z" fill="#19A250"/>
<path d="M80.5389 5.5673C105.777 20.3897 107.555 56.4093 83.681 73.5443C83.5721 73.6459 83.4641 73.732 83.2837 73.8244C64.2874 87.1206 37.9697 81.9305 25.5789 62.1231C16.1755 47.091 17.9471 28.6834 27.7698 15.8853C28.3603 15.1153 29.4635 14.9698 30.2344 15.5612C31.0043 16.1526 31.1499 17.2558 30.5585 18.0267C27.5775 21.9104 25.4343 26.2774 24.1727 31.0226L23.2635 35.5261C21.2302 50.0839 28.0463 63.912 39.4684 71.4935L42.5125 73.309C44.469 74.3509 46.5289 75.2197 48.6731 75.9036L52.4561 76.8979C62.3465 78.956 72.1912 76.8384 80.1114 71.7224L83.1711 69.5224C102.573 54.0152 101.558 23.9474 80.8365 9.89225L77.45 7.8552C75.2124 6.66685 72.8412 5.70463 70.3629 4.98594L66.9241 4.1638C55.5835 2.00956 43.8126 5.27158 35.1782 13.0343C34.4559 13.6834 33.3444 13.6249 32.6953 12.9025C32.0462 12.1811 32.1057 11.0696 32.8281 10.4205C46.0757 -1.4905 65.2982 -3.23824 80.2908 5.42448C80.3787 5.46568 80.462 5.51328 80.5389 5.5673Z" fill="black"/>
<path d="M28.8273 101.836C29.1706 102.312 29.708 102.565 30.2536 102.565C31.6599 102.565 32.5278 100.955 31.6773 99.7779C29.3692 96.58 19.1456 91.2369 13.6881 85.8545C11.5714 83.7662 7.86168 76.5546 6.88847 73.5151L4.48705 64.8697C4.21056 63.8736 5.66258 63.2355 6.16978 64.3506C8.96855 70.318 9.20842 71.5348 10.6119 73.3429C13.8382 77.5004 18.0268 80.9281 22.7363 83.2773L30.2225 90.8048C30.5658 91.1509 31.0172 91.323 31.4686 91.323C33.0213 91.323 33.8187 89.4352 32.7155 88.3256L25.1606 80.7285L22.1824 76.1014C21.6806 75.0687 23.0146 74.0607 23.8962 74.9717C34.1163 85.7163 33.6274 85.3922 34.1547 85.6486L45.1236 90.9769C51.1112 93.8856 50.6827 100.227 50.8255 100.679C50.9144 101.646 51.7676 102.355 52.7372 102.268C53.7049 102.179 54.4162 101.323 54.3274 100.357L54.1727 98.6738C53.7442 94.0183 50.8649 89.8563 46.6599 87.8138L35.9794 82.6255L26.4368 72.5409C24.9216 70.9745 22.5101 70.6586 20.702 71.7902C19.0705 72.811 18.2996 74.7126 18.6457 76.5125C16.6919 74.9506 14.9204 73.1589 13.3887 71.1869C12.3798 69.8868 12.3487 69.2954 9.37047 62.8949C8.49431 60.9668 6.39409 59.8948 4.37627 60.3443C1.92357 60.8918 0.425766 63.3884 1.09868 65.81C4.33415 77.4555 3.30693 73.8474 3.52757 74.5487C4.63628 78.0433 8.606 85.7813 11.2189 88.3567C14.1953 91.2928 18.3738 94.1456 22.0597 96.6623C23.5886 97.7061 27.9282 100.592 28.8273 101.836Z" fill="black"/>
<path d="M116.069 60.4689C113.923 59.7484 111.599 60.7582 110.664 62.8154C107.655 69.2836 107.622 69.8833 106.61 71.187C105.078 73.1599 103.306 74.9516 101.353 76.5135C101.699 74.7136 100.927 72.8111 99.2964 71.7912C97.4891 70.6596 95.0767 70.9746 93.5487 72.5548L84.019 82.6256L73.3393 87.8139C65.3706 91.6847 65.8256 99.9382 65.6645 100.43C65.5757 101.398 66.287 102.253 67.2538 102.341C68.2188 102.431 69.0766 101.719 69.1654 100.752C69.3074 100.303 68.8761 93.8902 74.8756 90.977C86.3545 85.3575 85.9379 85.7136 86.3526 85.276L96.0893 74.9855C96.9938 74.0507 98.3149 75.0743 97.815 76.1015L94.8377 80.7286L87.2828 88.3256C86.1787 89.4353 86.9779 91.3231 88.5298 91.3231C89.8646 91.3231 89.9195 90.4112 97.2621 83.2765C104.096 79.8689 109.334 74.2384 110.819 70.9718L113.865 64.2702C114.304 63.3043 115.812 63.7904 115.489 64.9513L113.11 73.5142C112.137 76.5547 108.427 83.7663 106.311 85.8537C100.867 91.2233 90.662 96.5581 88.3366 99.756C87.4851 100.924 88.3375 102.549 89.7566 102.549C90.2995 102.549 90.8351 102.298 91.1793 101.825C92.9481 99.3962 103.191 93.8701 108.779 88.3577C111.391 85.7814 115.362 78.0434 116.471 74.5488C116.692 73.8457 115.784 77.0226 118.877 65.8925C119.515 63.5945 118.282 61.2123 116.069 60.4689Z" fill="black"/>
<path d="M53.7881 105.873H32.2585C30.0109 105.873 28.1826 107.702 28.1826 109.949V115.925C28.1826 118.172 30.0109 120 32.2585 120H53.7881C56.0348 120 57.8631 118.172 57.8631 115.925V109.949C57.8631 107.702 56.0348 105.873 53.7881 105.873ZM54.3475 115.925C54.3475 116.233 54.0966 116.484 53.7881 116.484H32.2585C31.95 116.484 31.6992 116.233 31.6992 115.925V109.949C31.6992 109.641 31.95 109.39 32.2585 109.39H53.7881C54.0966 109.39 54.3475 109.641 54.3475 109.949V115.925Z" fill="black"/>
<path d="M87.7405 105.873H66.21C63.9633 105.873 62.135 107.702 62.135 109.949V115.925C62.135 118.172 63.9633 120 66.21 120H87.7405C89.9872 120 91.8155 118.172 91.8155 115.925V109.949C91.8155 107.702 89.9872 105.873 87.7405 105.873ZM88.299 115.925C88.299 116.233 88.049 116.484 87.7405 116.484H66.21C65.9024 116.484 65.6516 116.233 65.6516 115.925V109.949C65.6516 109.641 65.9024 109.39 66.21 109.39H87.7405C88.049 109.39 88.299 109.641 88.299 109.949V115.925Z" fill="black"/>
</svg>
