<svg width="120" height="120" viewBox="0 0 120 120" fill="none" xmlns="http://www.w3.org/2000/svg">
<g clip-path="url(#clip0)">
<path d="M11.2537 63.3545H6.06094C2.71898 63.3545 0 66.0735 0 69.4154V107.843C0 111.185 2.71898 113.904 6.06094 113.904H11.2537C14.5957 113.904 17.3147 111.185 17.3147 107.843V69.4154C17.3147 66.0735 14.5957 63.3545 11.2537 63.3545ZM13.7953 107.843C13.7953 109.244 12.6553 110.384 11.2537 110.384H6.06094C4.65938 110.384 3.51937 109.244 3.51937 107.843V69.4154C3.51937 68.0139 4.65938 66.8739 6.06094 66.8739H11.2537C12.6553 66.8739 13.7953 68.0139 13.7953 69.4154V107.843Z" fill="black"/>
<path d="M118.767 78.7004C116.563 75.4604 112.123 74.6025 108.873 76.7865L99.5651 83.0157C98.7996 80.0192 97.2684 77.2348 95.1099 74.9825C92.5711 72.3336 89.2624 70.5132 85.6924 69.7822C83.6351 63.203 77.9283 58.309 71.0763 57.3115C68.2734 54.9715 64.8413 53.5472 61.2267 53.2034V47.6731L65.4101 44.0515C67.481 44.9719 72.2932 46.8615 78.241 47.5529C79.7168 47.7244 81.1608 47.8097 82.5731 47.8097C91.2305 47.8097 98.6503 44.6028 104.213 38.4073C114.262 27.2138 114.228 9.8595 114.221 9.12614C114.221 9.11934 114.22 9.11278 114.22 9.10599C114.218 9.03052 114.213 8.95528 114.202 8.88098C114.195 8.83669 114.186 8.79356 114.177 8.74997C114.174 8.73942 114.172 8.72911 114.169 8.71856C114.036 8.12536 113.632 7.61184 113.045 7.42059C112.335 7.1895 111.596 7.38474 111.144 7.97302C110.97 8.13192 109.786 9.14114 106.409 10.374C103.06 11.5965 96.7981 13.2978 85.9826 14.4598C72.9462 15.8602 67.4759 23.3656 65.1823 29.4148C63.2745 34.4468 63.2269 39.2365 63.3103 41.2147L61.2272 43.0179V39.4566C61.2694 39.2365 61.2692 39.0111 61.2272 38.7922V12.5393C61.2272 11.5674 60.4395 10.7797 59.4675 10.7797C58.4956 10.7797 57.7078 11.5674 57.7078 12.5393V35.2449L56.1209 33.8712C56.1933 32.0063 56.1279 27.6542 54.3954 23.0841C52.2813 17.5081 47.2409 10.5903 35.2334 9.30052C25.3894 8.24278 19.68 6.69778 16.624 5.58755C13.5649 4.47661 12.4709 3.56606 12.2977 3.40997C11.8477 2.81911 11.1106 2.62458 10.3997 2.8538C9.80814 3.04458 9.40361 3.56466 9.27166 4.16325C9.27025 4.16911 9.26885 4.1752 9.26744 4.1813C9.2576 4.2277 9.24728 4.27364 9.24096 4.32075C9.22994 4.39481 9.22431 4.46981 9.22267 4.54505C9.22244 4.55184 9.22103 4.55841 9.22103 4.5652C9.21541 5.2388 9.18353 21.1793 18.42 31.4675C23.5411 37.1712 30.3687 40.1229 38.3358 40.1229C39.6342 40.1229 40.9636 40.0447 42.3202 39.8867C47.6977 39.2616 52.0692 37.5685 54.0209 36.7083L57.7076 39.9V46.6674C57.6898 46.8136 57.6886 46.9618 57.7076 47.1087V53.214C54.1282 53.5737 50.7317 54.9922 47.9534 57.3118C41.1014 58.309 35.3946 63.2035 33.3373 69.7826C32.419 69.9708 31.5138 70.2366 30.6291 70.568C29.0974 70.3594 27.5492 70.2523 25.9948 70.2523H23.7272C22.7553 70.2523 21.9675 71.04 21.9675 72.012C21.9675 72.984 22.7553 73.7717 23.7272 73.7717H25.9948C27.5492 73.7717 29.096 73.8936 30.6237 74.1256C31.2565 74.2215 31.8835 74.3377 32.5053 74.4713C32.6215 74.4964 32.7378 74.521 32.8535 74.5475C33.0007 74.581 33.1477 74.6157 33.2942 74.6513C33.4814 74.697 33.6682 74.7441 33.8545 74.7933C33.9441 74.8168 34.0343 74.8393 34.1236 74.8634C34.4154 74.9431 34.706 75.0268 34.9953 75.1151C35.0449 75.1301 35.0942 75.1461 35.1438 75.1615C35.4138 75.2454 35.6829 75.3324 35.9506 75.4236C35.9855 75.4355 36.0204 75.447 36.0553 75.459C36.6727 75.6718 37.2837 75.904 37.887 76.156C37.9125 76.1668 37.9381 76.1776 37.9636 76.1883C38.2594 76.3128 38.5535 76.4412 38.8456 76.5748C38.8505 76.5769 38.8554 76.5793 38.8603 76.5814C39.1582 76.718 39.454 76.8596 39.7477 77.0058C39.7835 77.0236 39.8189 77.0422 39.8546 77.0602C40.095 77.1811 40.3341 77.3056 40.5715 77.4329C40.6383 77.4687 40.7053 77.5043 40.7719 77.5407C41.0428 77.6883 41.3126 77.839 41.5793 77.9951C45.4559 80.2629 49.6765 81.7318 54.124 82.3611C54.1392 82.3634 54.1542 82.3653 54.1695 82.3669L72.3485 84.4599C75.5053 84.9165 77.9283 87.4486 78.244 90.6244L78.3131 91.3196L46.3992 90.057C46.2633 90.0364 46.1759 89.9623 46.1253 89.9018C46.0713 89.8372 46.0102 89.7284 46.024 89.5768C46.1117 88.6088 45.3982 87.7529 44.4305 87.6652C43.4611 87.5768 42.6066 88.2912 42.5189 89.2587C42.4233 90.3136 42.7442 91.3423 43.4227 92.1558C44.101 92.9691 45.0551 93.4695 46.11 93.5654C46.1395 93.5679 46.1693 93.57 46.1991 93.571L82.1867 94.9946L86.9564 95.2622C86.9892 95.2641 87.0223 95.265 87.0549 95.265C87.0931 95.265 87.1306 95.2592 87.1683 95.2566C87.2025 95.2543 87.2365 95.2533 87.2705 95.2491C87.3314 95.2416 87.391 95.229 87.4505 95.2151C87.4793 95.2086 87.5084 95.2039 87.5367 95.1957C87.6019 95.1772 87.6649 95.1528 87.7275 95.1268C87.7491 95.1179 87.7716 95.1113 87.7929 95.1014C87.8759 95.063 87.9567 95.019 88.0334 94.9676L99.2766 87.443L99.2789 87.4411L110.832 79.7091C112.484 78.5993 114.738 79.035 115.856 80.6797C116.88 82.1834 116.626 84.2276 115.258 85.4426L92.7202 105.712C90.8614 107.219 88.632 108.215 86.2692 108.595L51.3621 113.627C51.3467 113.629 51.3296 113.632 51.3143 113.634C50.2788 113.798 49.1986 113.729 48.1046 113.43L24.3966 104.452C23.4874 104.108 22.4719 104.565 22.1278 105.474C21.7838 106.383 22.2415 107.399 23.1502 107.743L46.9329 116.749C46.9805 116.767 47.029 116.783 47.0782 116.797C48.1224 117.092 49.166 117.24 50.1994 117.24C50.7603 117.24 51.3185 117.196 51.8714 117.109C51.8714 117.109 51.8759 117.108 51.8787 117.108L86.7853 112.076C86.794 112.075 86.8027 112.073 86.8113 112.072C89.8041 111.594 92.6276 110.329 94.9765 108.413C94.9985 108.395 95.0201 108.377 95.0412 108.358L117.603 88.0665C120.282 85.6885 120.782 81.6617 118.767 78.7004ZM101.594 36.0561C95.8613 42.4416 88.1738 45.1374 78.7521 44.0691C74.5329 43.5907 70.8774 42.4268 68.5599 41.5383C69.8452 40.5725 71.0932 39.6816 72.3047 38.8608C74.2139 39.7039 78.706 41.4343 83.4157 41.4343C84.1524 41.4343 84.8949 41.3918 85.6331 41.2972C86.5971 41.1732 87.2782 40.2915 87.1545 39.3277C87.0305 38.3637 86.1483 37.681 85.185 37.8066C81.8979 38.228 78.3825 37.3468 75.9666 36.5115C81.2471 33.308 85.8464 31.3053 90.0842 29.4617C90.4805 29.2892 90.8728 29.1186 91.2621 28.9484C92.611 29.3623 95.7696 30.1578 100.138 30.1578C100.236 30.1578 100.335 30.1573 100.433 30.1566C101.405 30.1486 102.186 29.3543 102.179 28.3826C102.171 27.4158 101.385 26.6375 100.419 26.6375C100.414 26.6375 100.409 26.6375 100.404 26.6375C99.0218 26.6475 97.7733 26.5679 96.6813 26.4455C101.479 24.0249 105.826 21.0385 110.155 15.56C109.305 21.3493 107.136 29.8833 101.594 36.0561ZM68.4729 30.6624C71.3002 23.2043 77.318 18.9303 86.3581 17.959C96.3914 16.8811 102.852 15.3315 106.97 13.9027C101.9 20.1099 96.802 22.6695 90.4699 25.4529C90.4648 25.455 90.4599 25.4574 90.4547 25.4595C89.8737 25.715 89.2831 25.9721 88.68 26.2343C87.3169 26.8273 85.9165 27.4372 84.4702 28.0948C84.7284 26.7528 85.1951 25.0913 86.0393 23.4551C86.4849 22.5915 86.1462 21.53 85.2825 21.0844C84.4188 20.6391 83.3574 20.9773 82.9118 21.8412C81.2663 25.0301 80.8071 28.2664 80.6794 29.8965C76.5483 31.9573 72.0115 34.579 66.8599 38.4125C66.9867 36.3382 67.384 33.5347 68.4729 30.6624ZM41.9138 36.3908C33.2939 37.3925 26.272 34.9449 21.0387 29.116C16.1588 23.6808 14.149 16.2293 13.3207 10.9704C15.3645 13.4834 17.5322 15.5511 19.9345 17.2906C21.5492 18.4597 23.2139 19.4393 24.9258 20.325C23.8519 20.4247 22.6249 20.4753 21.2653 20.4298C20.3039 20.3951 19.4806 21.1587 19.448 22.13C19.4156 23.1012 20.1769 23.9147 21.1481 23.9473C21.5274 23.96 21.8974 23.9658 22.2588 23.9658C26.2186 23.9658 29.1012 23.2547 30.3757 22.8682C30.717 23.0173 31.0592 23.1664 31.4037 23.3164C35.206 24.9704 39.3256 26.7629 44.0403 29.5972C41.8078 30.3427 38.6672 31.0751 35.7434 30.6385C34.7827 30.4955 33.8867 31.1579 33.7432 32.119C33.5998 33.0802 34.2626 33.9757 35.2238 34.1192C36.0026 34.2354 36.7861 34.2865 37.5642 34.2865C41.8423 34.2865 45.9206 32.7399 47.7209 31.9519C48.7399 32.6438 49.7862 33.3882 50.862 34.1918C48.766 34.9796 45.5857 35.964 41.9138 36.3908ZM40.2124 23.4816C40.0737 21.81 39.567 18.4733 37.721 15.3411C37.2272 14.5041 36.1491 14.2254 35.3117 14.7183C34.4745 15.2119 34.1956 16.2905 34.6889 17.1277C35.6032 18.6793 36.1104 20.3239 36.3924 21.6701C35.1635 21.1144 33.9713 20.5955 32.8078 20.0893C26.4017 17.3021 21.398 15.1219 16.4553 9.2438C20.2578 10.5106 26.066 11.8547 34.8574 12.7993C43.0254 13.6768 48.4774 17.5198 51.0624 24.2213C52.0245 26.7157 52.4058 29.1743 52.5441 31.0578C47.9604 27.6722 43.9085 25.3297 40.2124 23.4816ZM86.566 91.7154L81.8635 91.4515L81.7463 90.2759C81.2691 85.4743 77.5985 81.6483 72.8203 80.9719C72.8053 80.9696 72.7903 80.9677 72.7749 80.9661L54.5951 78.8731C50.611 78.3064 46.83 76.989 43.3568 74.9572C43.0484 74.7767 42.7374 74.6028 42.4245 74.4324C42.342 74.3876 42.2585 74.3445 42.1758 74.3004C41.9372 74.1732 41.6979 74.0483 41.4567 73.9266C41.3717 73.8837 41.2861 73.8418 41.2006 73.7996C40.9486 73.6751 40.6955 73.5542 40.441 73.4361C40.373 73.4047 40.305 73.373 40.2368 73.3418C39.9375 73.2054 39.6363 73.0735 39.3335 72.946C39.3099 72.9361 39.2864 72.9256 39.2628 72.9157C38.5737 72.6275 37.876 72.3619 37.1695 72.1196C37.1513 72.1133 37.1328 72.1076 37.1145 72.1013C36.8801 72.0214 36.6455 71.9417 36.4092 71.8669C36.4224 71.8259 36.4343 71.7842 36.4446 71.7415C37.8713 65.8463 42.8775 61.4239 48.9017 60.7367C49.2617 60.6954 49.6001 60.5445 49.8708 60.304C52.5324 57.9404 55.9571 56.6389 59.5149 56.6389C63.0727 56.6389 66.4978 57.9406 69.1592 60.304C69.4299 60.5443 69.7683 60.6954 70.1283 60.7367C76.1527 61.4239 81.1587 65.8463 82.5853 71.7415C82.7557 72.4456 83.34 72.9732 84.0577 73.0711C90.3502 73.9306 95.4 78.9209 96.4167 85.1225L86.566 91.7154Z" fill="#19A250"/>
<path d="M118.769 78.7003C116.564 75.4603 112.124 74.6025 108.874 76.7864L99.5664 83.0156C98.8009 80.0191 97.2699 77.2348 95.1113 74.9824C92.5726 72.3335 89.2633 70.5131 85.6933 69.7821C83.636 63.203 77.9291 58.309 71.0771 57.3115C68.2742 54.9715 64.8421 53.5472 61.2275 53.2034H57.709V53.2139C54.1296 53.5737 50.7324 54.9921 47.9541 57.3117C41.1021 58.309 35.3962 63.2034 33.3389 69.7826C32.4206 69.9708 31.5146 70.2366 30.6299 70.568C29.0982 70.3594 27.5505 70.2523 25.9961 70.2523H23.7285C22.7566 70.2523 21.9688 71.04 21.9688 72.012C21.9688 72.9839 22.7566 73.7716 23.7285 73.7716H25.9961C27.5505 73.7716 29.0973 73.8935 30.625 74.1256C31.2578 74.2214 31.885 74.3377 32.5068 74.4712C32.6231 74.4963 32.7387 74.521 32.8545 74.5474C33.0017 74.5809 33.1484 74.6156 33.2949 74.6512C33.4822 74.697 33.6691 74.7441 33.8555 74.7933C33.945 74.8167 34.0357 74.8392 34.125 74.8634C34.4168 74.943 34.7069 75.0267 34.9961 75.1151C35.0458 75.1301 35.0948 75.146 35.1445 75.1615C35.4145 75.2454 35.6845 75.3323 35.9521 75.4235C35.9871 75.4355 36.0217 75.447 36.0566 75.4589C36.674 75.6717 37.2844 75.904 37.8877 76.1559C37.9132 76.1667 37.9393 76.1775 37.9648 76.1883C38.2606 76.3127 38.5546 76.4412 38.8467 76.5748C38.8516 76.5769 38.8564 76.5792 38.8613 76.5813C39.1592 76.718 39.4554 76.8595 39.749 77.0058C39.7849 77.0236 39.8198 77.0421 39.8555 77.0602C40.0959 77.1811 40.3348 77.3055 40.5723 77.4328C40.6391 77.4687 40.7069 77.5043 40.7734 77.5406C41.0444 77.6883 41.3134 77.839 41.5801 77.9951C45.4566 80.2629 49.6775 81.7317 54.125 82.361C54.1402 82.3634 54.1557 82.3652 54.1709 82.3669L72.3496 84.4598C75.5064 84.9164 77.9294 87.4486 78.2451 90.6244L78.3144 91.3195L46.4004 90.0569C46.2645 90.0363 46.1766 89.9623 46.126 89.9018C46.0721 89.8371 46.0116 89.7284 46.0254 89.5767C46.113 88.6088 45.3994 87.7528 44.4316 87.6651C43.4623 87.5768 42.6082 88.2912 42.5205 89.2587C42.4249 90.3136 42.7453 91.3423 43.4238 92.1558C44.1021 92.9691 45.0564 93.4694 46.1113 93.5653C46.1409 93.5679 46.1704 93.57 46.2002 93.5709L82.1875 94.9945L86.958 95.2622C86.9908 95.264 87.0231 95.265 87.0556 95.265C87.0938 95.265 87.1312 95.2591 87.1689 95.2565C87.2031 95.2542 87.2375 95.2533 87.2715 95.249C87.3324 95.2415 87.3916 95.2289 87.4512 95.215C87.48 95.2085 87.5097 95.2038 87.5381 95.1956C87.6032 95.1771 87.6659 95.1527 87.7285 95.1267C87.7501 95.1178 87.7726 95.1112 87.7939 95.1014C87.8769 95.0629 87.9575 95.0189 88.0342 94.9676L99.2773 87.443L99.2803 87.4411L110.833 79.7091C112.484 78.5993 114.739 79.035 115.857 80.6796C116.88 82.1834 116.627 84.2276 115.259 85.4426L92.7217 105.712C90.8628 107.219 88.6332 108.215 86.2705 108.595L51.3633 113.627C51.3478 113.629 51.3307 113.632 51.3154 113.634C50.28 113.798 49.1995 113.729 48.1055 113.43L24.3975 104.452C23.4883 104.108 22.473 104.565 22.1289 105.474C21.7848 106.383 22.2427 107.399 23.1514 107.743L46.9336 116.749C46.9812 116.767 47.0299 116.783 47.0791 116.797C48.1232 117.092 49.1668 117.24 50.2002 117.24C50.7611 117.24 51.3192 117.196 51.8721 117.109C51.8721 117.109 51.8771 117.108 51.8799 117.108L86.7861 112.076C86.7948 112.075 86.8038 112.073 86.8125 112.072C89.8052 111.594 92.6286 110.329 94.9775 108.413C94.9996 108.395 95.0209 108.377 95.042 108.358L117.604 88.0664C120.283 85.6884 120.783 81.6616 118.769 78.7003ZM86.5674 91.7154L81.8642 91.4515L81.7471 90.2759C81.2699 85.4742 77.5995 81.6483 72.8213 80.9719C72.8063 80.9695 72.7918 80.9676 72.7764 80.966L54.5967 78.873C50.6125 78.3063 46.8316 76.9889 43.3584 74.9571C43.05 74.7766 42.7387 74.6027 42.4258 74.4324C42.3433 74.3876 42.2595 74.3445 42.1768 74.3004C41.9382 74.1731 41.6992 74.0482 41.458 73.9266C41.3729 73.8837 41.2877 73.8417 41.2021 73.7995C40.9502 73.6751 40.6969 73.5541 40.4424 73.436C40.3744 73.4046 40.3065 73.373 40.2383 73.3418C39.939 73.2054 39.6378 73.0734 39.335 72.9459C39.3113 72.9361 39.2873 72.9255 39.2637 72.9157C38.5746 72.6274 37.8773 72.3619 37.1709 72.1195C37.1526 72.1132 37.1335 72.1076 37.1152 72.1012C36.8809 72.0213 36.6464 71.9416 36.4102 71.8669C36.4233 71.8259 36.435 71.7841 36.4453 71.7415C37.872 65.8462 42.8782 61.4238 48.9023 60.7367C49.2623 60.6954 49.6014 60.5445 49.8721 60.304C52.5336 57.9403 55.9578 56.6388 59.5156 56.6388C63.0734 56.6388 66.4988 57.9406 69.1601 60.304C69.4308 60.5442 69.7699 60.6954 70.1299 60.7367C76.1542 61.4238 81.1603 65.8462 82.5869 71.7415C82.7573 72.4455 83.3409 72.9731 84.0586 73.0711C90.3511 73.9306 95.4012 78.9209 96.418 85.1224L86.5674 91.7154Z" fill="black"/>
</g>
<defs>
<clipPath id="clip0">
<rect width="120" height="120" fill="white"/>
</clipPath>
</defs>
</svg>
