<svg width="120" height="120" viewBox="0 0 120 120" fill="none" xmlns="http://www.w3.org/2000/svg">
<g clip-path="url(#clip0)">
<path d="M118.001 5.23615e-08C118.001 5.23615e-08 118 5.23615e-08 118 5.23615e-08H2C0.89575 -0.000249948 0.00025 0.89475 0 1.999C0 1.99925 0 1.99975 0 2V42H4V4H116V48H46V52H118C119.104 52.0003 120 51.1052 120 50.001C120 50.0007 120 50.0003 120 50V2C120 0.89575 119.105 0.000250052 118.001 5.23615e-08Z" fill="black"/>
<path d="M106 10H66V14H106V10Z" fill="#19A250"/>
<path d="M112 22H72V26H112V22Z" fill="#19A250"/>
<path d="M104 34H64V38H104V34Z" fill="#19A250"/>
<path d="M63.8405 17.2435C62.4712 13.9522 58.6932 12.3942 55.4022 13.7635C55.346 13.787 55.29 13.811 55.2345 13.836L39.0175 22.2485C39.657 20.923 39.9927 19.4715 40 18C40 12.4773 35.5228 8 30 8C24.4772 8 20 12.4773 20 18C20.0075 20.1707 20.7283 22.279 22.0513 24H21.968C16.291 24.038 11.2232 27.5673 9.219 32.879L3.88 51.2812C2.609 54.5827 4.255 58.2897 7.55675 59.5607C9.06225 60.1402 10.731 60.1305 12.2297 59.5332C13.9517 58.8395 15.2917 57.4385 15.9085 55.6875L18 49.0312V77.977C16.279 76.6543 14.1707 75.9335 12 75.9258C6.4855 75.9175 2.00825 80.3813 2 85.896C1.996 88.5968 3.086 91.1838 5.02175 93.0673C1.94975 94.6367 0.0120001 97.7907 5.23615e-08 101.24V118C-0.000249948 119.104 0.89475 120 1.999 120C1.99925 120 1.99975 120 2 120H22C23.1042 120 23.9998 119.105 24 118.001C24 118.001 24 118 24 118V101.24C23.9902 98.4055 22.6733 95.734 20.431 94H35.5692C33.3267 95.734 32.0098 98.4055 32.0003 101.24V118C32 119.104 32.895 120 33.9992 120C33.9995 120 34 120 34.0003 120H54.0003C55.1045 120 56 119.105 56.0003 118.001C56.0003 118.001 56.0003 118 56.0003 118V101.24C55.9883 97.7907 54.0505 94.6367 50.9785 93.0673C54.9272 89.213 55.004 82.8873 51.1497 78.9385C48.7762 76.5068 45.3295 75.448 42.0003 76.128V35.2147L60.3605 25.6815C63.6515 24.3125 65.2095 20.5345 63.8405 17.2435ZM30 12C33.3138 12 36 14.6862 36 18C36 21.3138 33.3138 24 30 24C26.6877 23.9965 24.0035 21.3123 24 18C24 14.6862 26.6863 12 30 12ZM12 79.9258C15.3138 79.9258 18 82.612 18 85.9258C18 89.2395 15.3138 91.9258 12 91.9258C8.68625 91.9258 6 89.2395 6 85.9258C6.0035 82.6135 8.68775 79.9295 12 79.9258ZM20 116H4V101.24C4.004 98.3475 6.34825 96.0035 9.24125 96H14.7587C17.6515 96.0035 19.996 98.3475 20 101.24V116ZM52 101.24V116H36V101.24C36.004 98.3475 38.3482 96.0035 41.2412 96H46.7588C49.6518 96.0035 51.996 98.3475 52 101.24ZM44 79.9258C47.3122 79.9293 49.9965 82.6135 50 85.9258C50 89.2395 47.3138 91.9258 44 91.9258C40.6862 91.9258 38 89.2395 38 85.9258C38 82.612 40.6862 79.9258 44 79.9258ZM60.1808 20.58C59.913 21.267 59.3633 21.8062 58.671 22.0605L39.0793 32.2245C38.4163 32.5685 38 33.2533 38 34V77.977C34.2537 80.747 32.956 85.7603 34.888 90H32V56H28V90H21.112C21.681 88.7425 21.9808 87.38 21.9925 86H22V36C21.9998 34.8953 21.104 34 19.9995 34.0003C19.1263 34.0005 18.354 34.5673 18.092 35.4005L12.12 54.4043C11.6675 55.6523 10.2887 56.2973 9.04075 55.8445C8.95325 55.8128 8.8675 55.776 8.784 55.7342C7.63025 55.138 7.1405 53.746 7.667 52.5585L13.0057 34.1562C14.4455 30.4587 17.9998 28.0173 21.9678 28H36.129C36.4495 28.0005 36.7655 27.9233 37.05 27.7755L56.928 17.4573C58.1205 16.9598 59.495 17.4687 60.0755 18.6232C60.3833 19.2317 60.4215 19.9417 60.1808 20.58Z" fill="black"/>
<path d="M82.9782 93.0672C86.934 89.2132 87.0165 82.8819 83.1625 78.9262C79.3085 74.9704 72.9772 74.8879 69.0215 78.7419C65.0657 82.5959 64.9832 88.9272 68.8372 92.8829C68.898 92.9452 68.9595 93.0067 69.0218 93.0672C65.95 94.6367 64.012 97.7907 64 101.24V118C63.9998 119.104 64.8948 120 65.999 120C65.9993 120 65.9998 120 66 120H86C87.1042 120 87.9998 119.105 88 118.001C88 118.001 88 118 88 118V101.24C87.988 97.7907 86.0502 94.6367 82.9782 93.0672ZM76 79.9257C79.3138 79.9257 82 82.6119 82 85.9257C82 89.2394 79.3138 91.9257 76 91.9257C72.6862 91.9257 70 89.2394 70 85.9257C70.0035 82.6134 72.6877 79.9294 76 79.9257ZM84 116H68V101.24C68.004 98.3474 70.3482 96.0034 73.2412 95.9999H78.7588C81.6515 96.0034 83.996 98.3474 84 101.24V116Z" fill="black"/>
<path d="M114.978 93.0672C118.934 89.2132 119.016 82.8819 115.162 78.9262C111.308 74.9704 104.977 74.8879 101.021 78.7419C97.0657 82.5959 96.9832 88.9272 100.837 92.8829C100.898 92.9452 100.959 93.0067 101.022 93.0672C97.95 94.6367 96.012 97.7907 96 101.24V118C95.9998 119.104 96.8948 120 97.999 120C97.9992 120 97.9997 120 98 120H118C119.104 120 120 119.105 120 118.001C120 118.001 120 118 120 118V101.24C119.988 97.7907 118.05 94.6367 114.978 93.0672ZM108 79.9257C111.314 79.9257 114 82.6119 114 85.9257C114 89.2394 111.314 91.9257 108 91.9257C104.686 91.9257 102 89.2394 102 85.9257C102.003 82.6134 104.688 79.9294 108 79.9257ZM116 116H100V101.24C100.004 98.3474 102.348 96.0034 105.241 95.9999H110.759C113.651 96.0034 115.996 98.3474 116 101.24V116Z" fill="black"/>
</g>
<defs>
<clipPath id="clip0">
<rect width="120" height="120" fill="white"/>
</clipPath>
</defs>
</svg>
